<svg xmlns="http://www.w3.org/2000/svg" viewBox="0 0 512 512" id="hotel">
  <path fill="#eee" d="M114.195 120.5h33v60h-33zM364.805 120.5h33v60h-33z"></path>
  <rect width="349" height="128" x="81.5" y="7.5" fill="#f66" rx="15"></rect>
  <path fill="#ff4e4e" d="M415.5 7.5h-30a15 15 0 0 1 15 15v98a15 15 0 0 1-15 15h30a15 15 0 0 0 15-15v-98a15 15 0 0 0-15-15Z"></path>
  <path fill="#ffe966" d="m152.581 40.759 8.371 16.962a3 3 0 0 0 2.26 1.641l18.718 2.72a3 3 0 0 1 1.663 5.117l-13.546 13.203a3 3 0 0 0-.862 2.656l3.197 18.643a3 3 0 0 1-4.353 3.162l-16.742-8.802a3 3 0 0 0-2.792 0l-16.743 8.802a3 3 0 0 1-4.353-3.162l3.198-18.643a3 3 0 0 0-.863-2.656L116.19 67.2a3 3 0 0 1 1.663-5.117l18.718-2.72a3 3 0 0 0 2.26-1.641l8.37-16.962a3 3 0 0 1 5.381 0zm106.11 0 8.37 16.962a3 3 0 0 0 2.26 1.641l18.718 2.72a3 3 0 0 1 1.663 5.117l-13.545 13.203a3 3 0 0 0-.863 2.656l3.197 18.643a3 3 0 0 1-4.352 3.162l-16.743-8.802a3 3 0 0 0-2.792 0l-16.743 8.802a3 3 0 0 1-4.352-3.162l3.197-18.643a3 3 0 0 0-.863-2.656L222.298 67.2a3 3 0 0 1 1.663-5.117l18.719-2.72a3 3 0 0 0 2.258-1.641l8.372-16.962a3 3 0 0 1 5.38 0zm106.108.5 8.372 16.962a3 3 0 0 0 2.259 1.641l18.718 2.72a3 3 0 0 1 1.663 5.117l-13.545 13.203a3 3 0 0 0-.863 2.656l3.198 18.643a3 3 0 0 1-4.353 3.162l-16.743-8.802a3 3 0 0 0-2.792 0l-16.742 8.802a3 3 0 0 1-4.353-3.162l3.197-18.643a3 3 0 0 0-.862-2.656L328.407 67.7a3 3 0 0 1 1.663-5.117l18.719-2.72a3 3 0 0 0 2.259-1.641l8.371-16.962a3 3 0 0 1 5.38 0z"></path>
  <path fill="#ffe236" d="M333.373 65.903a3 3 0 0 0 2.26-1.64l1.322-2.681-6.885 1a3.002 3.002 0 0 0-2.33 4.14zm62.438 1.796a3 3 0 0 0-1.663-5.117l-18.718-2.72a3 3 0 0 1-2.26-1.641l-8.37-16.962a3 3 0 0 0-5.381 0l-6.508 13.187 4.844 9.816a3 3 0 0 0 2.259 1.641l18.719 2.72a3 3 0 0 1 1.663 5.117L366.85 86.943a3 3 0 0 0-.862 2.656l1.558 9.087 12.702 6.677a3 3 0 0 0 4.353-3.162l-3.198-18.643a3 3 0 0 1 .863-2.656zm-106.11-.5a3 3 0 0 0-1.662-5.117l-18.719-2.72a3 3 0 0 1-2.258-1.641l-8.372-16.962a3 3 0 0 0-5.38 0L246.8 53.946l4.845 9.816a3 3 0 0 0 2.259 1.641l18.718 2.72a3 3 0 0 1 1.663 5.117l-13.545 13.203a3 3 0 0 0-.863 2.656l1.559 9.087 12.702 6.677a3 3 0 0 0 4.353-3.162l-3.198-18.643a3 3 0 0 1 .863-2.656zm-106.108 0a3 3 0 0 0-1.663-5.117l-18.719-2.72a3 3 0 0 1-2.259-1.641l-8.371-16.962a3 3 0 0 0-5.38 0l-6.509 13.187 4.845 9.816a3 3 0 0 0 2.258 1.641l18.72 2.72a3 3 0 0 1 1.662 5.117l-13.545 13.203a3 3 0 0 0-.863 2.656l1.559 9.087 12.701 6.677a3 3 0 0 0 4.353-3.162l-3.197-18.643a3 3 0 0 1 .863-2.656zm164.497 35.403a3 3 0 0 0-2.792 0l-4.615 2.427a2.964 2.964 0 0 0 3.288.334l4.685-2.463z"></path>
  <path fill="#f2f2f2" d="M22.5 195.5h467v309h-467z"></path>
  <path fill="#eee" d="M444.5 195.5h45v309h-45z"></path>
  <path fill="#ffcd85" d="M217 372.5h78a15 15 0 0 1 15 15v117H202v-117a15 15 0 0 1 15-15Z"></path>
  <path fill="#ffc570" d="M295 372.5h-45a15 15 0 0 1 15 15v117h45v-117a15 15 0 0 0-15-15Z"></path>
  <rect width="497" height="30" x="7.5" y="165.5" fill="#676e87" rx="7"></rect>
  <path fill="#595f74" d="M497.5 165.5h-45a7 7 0 0 1 7 7v16a7 7 0 0 1-7 7h45a7 7 0 0 0 7-7v-16a7 7 0 0 0-7-7Z"></path>
  <rect width="81" height="87" x="67.5" y="240.5" fill="#66c1ff" rx="9"></rect>
  <rect width="81" height="87" x="67.5" y="372.5" fill="#66c1ff" rx="9"></rect>
  <rect width="81" height="87" x="363.5" y="240.5" fill="#66c1ff" rx="9"></rect>
  <rect width="81" height="87" x="363.5" y="372.5" fill="#66c1ff" rx="9"></rect>
  <rect width="81" height="87" x="215.5" y="240.5" fill="#66c1ff" rx="9"></rect>
  <path fill="#d9f0ff" d="M100.5 240.5h15v87h-15z"></path>
  <path fill="#d9f0ff" d="M148.5 276.53v14.94a4.189 4.189 0 0 1-.5.03H68a4.189 4.189 0 0 1-.5-.03v-14.94a4.189 4.189 0 0 1 .5-.03h80a4.189 4.189 0 0 1 .5.03ZM100.5 372.5h15v87h-15z"></path>
  <path fill="#d9f0ff" d="M148.5 408.53v14.94a4.189 4.189 0 0 1-.5.03H68a4.189 4.189 0 0 1-.5-.03v-14.94a4.189 4.189 0 0 1 .5-.03h80a4.189 4.189 0 0 1 .5.03ZM249 240.5h15v87h-15z"></path>
  <path fill="#d9f0ff" d="M296.5 276.53v14.94a4.189 4.189 0 0 1-.5.03h-80a4.189 4.189 0 0 1-.5-.03v-14.94a4.189 4.189 0 0 1 .5-.03h80a4.189 4.189 0 0 1 .5.03ZM397 240.5h15v87h-15z"></path>
  <path fill="#d9f0ff" d="M444.5 276.53v14.94a4.189 4.189 0 0 1-.5.03h-80a4.189 4.189 0 0 1-.5-.03v-14.94a4.189 4.189 0 0 1 .5-.03h80a4.189 4.189 0 0 1 .5.03ZM397 372.5h15v87h-15z"></path>
  <path fill="#d9f0ff" d="M444.5 408.53v14.94a4.189 4.189 0 0 1-.5.03h-80a4.189 4.189 0 0 1-.5-.03v-14.94a4.189 4.189 0 0 1 .5-.03h80a4.189 4.189 0 0 1 .5.03Z"></path>
  <path fill="#676e87" d="M504.5 512H7.5a7.5 7.5 0 0 1 0-15h497a7.5 7.5 0 0 1 0 15Z"></path>
</svg>
