<svg width="391" height="391" viewBox="0 0 391 391" fill="none" xmlns="http://www.w3.org/2000/svg">
<rect width="391" height="391" rx="10" fill="#249CEC"/>
<rect x="39" y="185" width="314" height="57" rx="10" fill="white"/>
<rect x="75" y="140" width="100" height="51" rx="15" fill="white"/>
<rect x="75" y="212" width="30" height="51" rx="5" fill="white"/>
<rect x="257" y="212" width="30" height="51" rx="5" fill="white"/>
<path d="M221 155C221 146.716 227.716 140 236 140H306C314.284 140 321 146.716 321 155V176C321 184.284 314.284 191 306 191H236C227.716 191 221 184.284 221 176V155Z" fill="white"/>
<path d="M58.875 356V326.909H71.4886C73.7045 326.909 75.5653 327.207 77.071 327.804C78.5862 328.401 79.7273 329.243 80.4943 330.332C81.2708 331.421 81.6591 332.705 81.6591 334.182C81.6591 335.252 81.4223 336.227 80.9489 337.108C80.4848 337.989 79.8314 338.727 78.9886 339.324C78.1458 339.911 77.161 340.318 76.0341 340.545V340.83C77.2841 340.877 78.4205 341.194 79.4432 341.781C80.4659 342.359 81.2803 343.159 81.8864 344.182C82.4924 345.195 82.7955 346.388 82.7955 347.761C82.7955 349.352 82.3788 350.768 81.5455 352.009C80.7216 353.249 79.5473 354.224 78.0227 354.935C76.4981 355.645 74.6799 356 72.5682 356H58.875ZM66.7727 349.693H70.4659C71.7917 349.693 72.786 349.447 73.4489 348.955C74.1117 348.453 74.4432 347.714 74.4432 346.739C74.4432 346.057 74.2869 345.479 73.9744 345.006C73.6619 344.532 73.2169 344.172 72.6392 343.926C72.071 343.68 71.3845 343.557 70.5795 343.557H66.7727V349.693ZM66.7727 338.67H70.0114C70.7027 338.67 71.3134 338.562 71.8438 338.344C72.3741 338.126 72.786 337.813 73.0795 337.406C73.3826 336.99 73.5341 336.483 73.5341 335.886C73.5341 334.987 73.2121 334.3 72.5682 333.827C71.9242 333.344 71.1098 333.102 70.125 333.102H66.7727V338.67ZM96.2188 356.398C93.8513 356.398 91.8248 355.929 90.1392 354.991C88.4536 354.045 87.161 352.728 86.2614 351.043C85.3617 349.348 84.9119 347.383 84.9119 345.148C84.9119 342.913 85.3617 340.953 86.2614 339.267C87.161 337.572 88.4536 336.256 90.1392 335.318C91.8248 334.371 93.8513 333.898 96.2188 333.898C98.5862 333.898 100.613 334.371 102.298 335.318C103.984 336.256 105.277 337.572 106.176 339.267C107.076 340.953 107.526 342.913 107.526 345.148C107.526 347.383 107.076 349.348 106.176 351.043C105.277 352.728 103.984 354.045 102.298 354.991C100.613 355.929 98.5862 356.398 96.2188 356.398ZM96.2756 350.602C96.9384 350.602 97.5114 350.38 97.9943 349.935C98.4773 349.49 98.8513 348.855 99.1165 348.031C99.3816 347.207 99.5142 346.227 99.5142 345.091C99.5142 343.945 99.3816 342.965 99.1165 342.151C98.8513 341.327 98.4773 340.692 97.9943 340.247C97.5114 339.802 96.9384 339.58 96.2756 339.58C95.5748 339.58 94.9735 339.802 94.4716 340.247C93.9697 340.692 93.5862 341.327 93.321 342.151C93.0559 342.965 92.9233 343.945 92.9233 345.091C92.9233 346.227 93.0559 347.207 93.321 348.031C93.5862 348.855 93.9697 349.49 94.4716 349.935C94.9735 350.38 95.5748 350.602 96.2756 350.602ZM121.219 356.398C118.851 356.398 116.825 355.929 115.139 354.991C113.454 354.045 112.161 352.728 111.261 351.043C110.362 349.348 109.912 347.383 109.912 345.148C109.912 342.913 110.362 340.953 111.261 339.267C112.161 337.572 113.454 336.256 115.139 335.318C116.825 334.371 118.851 333.898 121.219 333.898C123.586 333.898 125.613 334.371 127.298 335.318C128.984 336.256 130.277 337.572 131.176 339.267C132.076 340.953 132.526 342.913 132.526 345.148C132.526 347.383 132.076 349.348 131.176 351.043C130.277 352.728 128.984 354.045 127.298 354.991C125.613 355.929 123.586 356.398 121.219 356.398ZM121.276 350.602C121.938 350.602 122.511 350.38 122.994 349.935C123.477 349.49 123.851 348.855 124.116 348.031C124.382 347.207 124.514 346.227 124.514 345.091C124.514 343.945 124.382 342.965 124.116 342.151C123.851 341.327 123.477 340.692 122.994 340.247C122.511 339.802 121.938 339.58 121.276 339.58C120.575 339.58 119.973 339.802 119.472 340.247C118.97 340.692 118.586 341.327 118.321 342.151C118.056 342.965 117.923 343.945 117.923 345.091C117.923 346.227 118.056 347.207 118.321 348.031C118.586 348.855 118.97 349.49 119.472 349.935C119.973 350.38 120.575 350.602 121.276 350.602ZM142.753 350.83L142.81 341.511H143.832L149.116 334.182H157.923L149.06 345.602H146.844L142.753 350.83ZM135.707 356V326.909H143.548V356H135.707ZM149.173 356L144.173 347.364L149.287 341.795L158.151 356H149.173ZM159.965 356V334.182H167.806V356H159.965ZM163.886 331.909C162.825 331.909 161.916 331.559 161.158 330.858C160.401 330.157 160.022 329.314 160.022 328.33C160.022 327.345 160.401 326.502 161.158 325.801C161.916 325.1 162.825 324.75 163.886 324.75C164.956 324.75 165.865 325.1 166.613 325.801C167.371 326.502 167.749 327.345 167.749 328.33C167.749 329.314 167.371 330.157 166.613 330.858C165.865 331.559 164.956 331.909 163.886 331.909ZM179.642 343.727V356H171.801V334.182H179.244V338.33H179.472C179.945 336.947 180.778 335.863 181.972 335.077C183.174 334.291 184.576 333.898 186.176 333.898C187.72 333.898 189.06 334.253 190.196 334.963C191.342 335.664 192.227 336.63 192.852 337.861C193.487 339.092 193.799 340.498 193.79 342.08V356H185.949V343.727C185.958 342.648 185.684 341.8 185.125 341.185C184.576 340.569 183.809 340.261 182.824 340.261C182.18 340.261 181.616 340.403 181.134 340.688C180.66 340.962 180.295 341.36 180.04 341.881C179.784 342.392 179.652 343.008 179.642 343.727ZM208.172 364.636C205.984 364.636 204.109 364.324 202.547 363.699C200.994 363.083 199.786 362.231 198.925 361.142C198.072 360.063 197.594 358.822 197.49 357.42H205.047C205.123 357.884 205.312 358.259 205.615 358.543C205.918 358.827 206.306 359.03 206.78 359.153C207.263 359.286 207.803 359.352 208.399 359.352C209.412 359.352 210.25 359.106 210.913 358.614C211.586 358.121 211.922 357.231 211.922 355.943V352.25H211.695C211.411 352.989 210.975 353.618 210.388 354.139C209.801 354.651 209.095 355.044 208.271 355.318C207.447 355.583 206.543 355.716 205.558 355.716C204.005 355.716 202.575 355.356 201.268 354.636C199.971 353.917 198.929 352.776 198.143 351.213C197.367 349.651 196.979 347.61 196.979 345.091C196.979 342.458 197.386 340.318 198.2 338.67C199.024 337.023 200.085 335.815 201.382 335.048C202.689 334.281 204.062 333.898 205.501 333.898C206.581 333.898 207.528 334.087 208.342 334.466C209.157 334.835 209.839 335.332 210.388 335.957C210.937 336.573 211.354 337.25 211.638 337.989H211.808V334.182H219.649V355.943C219.649 357.79 219.171 359.357 218.214 360.645C217.268 361.942 215.932 362.932 214.209 363.614C212.485 364.295 210.473 364.636 208.172 364.636ZM208.456 350.148C209.176 350.148 209.791 349.949 210.303 349.551C210.823 349.144 211.221 348.566 211.496 347.818C211.78 347.061 211.922 346.152 211.922 345.091C211.922 344.011 211.78 343.088 211.496 342.321C211.221 341.545 210.823 340.953 210.303 340.545C209.791 340.129 209.176 339.92 208.456 339.92C207.736 339.92 207.121 340.129 206.609 340.545C206.107 340.953 205.719 341.545 205.445 342.321C205.179 343.088 205.047 344.011 205.047 345.091C205.047 346.17 205.179 347.089 205.445 347.847C205.719 348.595 206.107 349.168 206.609 349.565C207.121 349.954 207.736 350.148 208.456 350.148ZM231.606 356V334.182H239.219V338.33H239.447C239.844 336.795 240.474 335.673 241.336 334.963C242.207 334.253 243.225 333.898 244.39 333.898C244.731 333.898 245.067 333.926 245.398 333.983C245.739 334.03 246.066 334.101 246.379 334.196V340.886C245.99 340.754 245.512 340.654 244.944 340.588C244.376 340.522 243.888 340.489 243.481 340.489C242.714 340.489 242.022 340.664 241.407 341.014C240.801 341.355 240.323 341.838 239.972 342.463C239.622 343.079 239.447 343.803 239.447 344.636V356H231.606ZM258.211 356.398C255.844 356.398 253.817 355.929 252.131 354.991C250.446 354.045 249.153 352.728 248.254 351.043C247.354 349.348 246.904 347.383 246.904 345.148C246.904 342.913 247.354 340.953 248.254 339.267C249.153 337.572 250.446 336.256 252.131 335.318C253.817 334.371 255.844 333.898 258.211 333.898C260.578 333.898 262.605 334.371 264.29 335.318C265.976 336.256 267.269 337.572 268.168 339.267C269.068 340.953 269.518 342.913 269.518 345.148C269.518 347.383 269.068 349.348 268.168 351.043C267.269 352.728 265.976 354.045 264.29 354.991C262.605 355.929 260.578 356.398 258.211 356.398ZM258.268 350.602C258.931 350.602 259.504 350.38 259.987 349.935C260.469 349.49 260.844 348.855 261.109 348.031C261.374 347.207 261.506 346.227 261.506 345.091C261.506 343.945 261.374 342.965 261.109 342.151C260.844 341.327 260.469 340.692 259.987 340.247C259.504 339.802 258.931 339.58 258.268 339.58C257.567 339.58 256.966 339.802 256.464 340.247C255.962 340.692 255.578 341.327 255.313 342.151C255.048 342.965 254.915 343.945 254.915 345.091C254.915 346.227 255.048 347.207 255.313 348.031C255.578 348.855 255.962 349.49 256.464 349.935C256.966 350.38 257.567 350.602 258.268 350.602ZM283.211 356.398C280.844 356.398 278.817 355.929 277.131 354.991C275.446 354.045 274.153 352.728 273.254 351.043C272.354 349.348 271.904 347.383 271.904 345.148C271.904 342.913 272.354 340.953 273.254 339.267C274.153 337.572 275.446 336.256 277.131 335.318C278.817 334.371 280.844 333.898 283.211 333.898C285.578 333.898 287.605 334.371 289.29 335.318C290.976 336.256 292.269 337.572 293.168 339.267C294.068 340.953 294.518 342.913 294.518 345.148C294.518 347.383 294.068 349.348 293.168 351.043C292.269 352.728 290.976 354.045 289.29 354.991C287.605 355.929 285.578 356.398 283.211 356.398ZM283.268 350.602C283.931 350.602 284.504 350.38 284.987 349.935C285.469 349.49 285.844 348.855 286.109 348.031C286.374 347.207 286.506 346.227 286.506 345.091C286.506 343.945 286.374 342.965 286.109 342.151C285.844 341.327 285.469 340.692 284.987 340.247C284.504 339.802 283.931 339.58 283.268 339.58C282.567 339.58 281.966 339.802 281.464 340.247C280.962 340.692 280.578 341.327 280.313 342.151C280.048 342.965 279.915 343.945 279.915 345.091C279.915 346.227 280.048 347.207 280.313 348.031C280.578 348.855 280.962 349.49 281.464 349.935C281.966 350.38 282.567 350.602 283.268 350.602ZM297.7 356V334.182H305.143V338.33H305.37C305.825 336.966 306.601 335.886 307.7 335.091C308.798 334.295 310.105 333.898 311.62 333.898C313.154 333.898 314.475 334.305 315.583 335.119C316.691 335.924 317.359 336.994 317.586 338.33H317.813C318.183 336.994 318.969 335.924 320.171 335.119C321.374 334.305 322.785 333.898 324.404 333.898C326.497 333.898 328.192 334.57 329.489 335.915C330.796 337.259 331.45 339.049 331.45 341.284V356H323.609V343.273C323.609 342.316 323.367 341.568 322.884 341.028C322.401 340.479 321.753 340.205 320.938 340.205C320.133 340.205 319.494 340.479 319.021 341.028C318.557 341.568 318.325 342.316 318.325 343.273V356H310.825V343.273C310.825 342.316 310.583 341.568 310.1 341.028C309.617 340.479 308.969 340.205 308.154 340.205C307.614 340.205 307.15 340.328 306.762 340.574C306.374 340.82 306.071 341.175 305.853 341.639C305.645 342.094 305.54 342.638 305.54 343.273V356H297.7Z" fill="white"/>
<path d="M289 87.0598C289 90.8326 292.061 93.8935 295.834 93.8935H345.948C349.721 93.8935 352.782 90.8326 352.782 87.0598V48.3351H289V87.0598ZM298.112 59.7247C298.112 58.4718 299.137 57.4468 300.39 57.4468H341.392C342.645 57.4468 343.67 58.4718 343.67 59.7247V68.8364C343.67 70.0892 342.645 71.1143 341.392 71.1143H300.39C299.137 71.1143 298.112 70.0892 298.112 68.8364V59.7247ZM345.948 30.1117H339.114V23.2779C339.114 22.0251 338.089 21 336.836 21H332.281C331.028 21 330.003 22.0251 330.003 23.2779V30.1117H311.779V23.2779C311.779 22.0251 310.754 21 309.501 21H304.945C303.693 21 302.668 22.0251 302.668 23.2779V30.1117H295.834C292.061 30.1117 289 33.1726 289 36.9455V43.7792H352.782V36.9455C352.782 33.1726 349.721 30.1117 345.948 30.1117Z" fill="white"/>
</svg>
